<?xml version="1.0" encoding="UTF-8" standalone="no"?>
<!-- Generator: visioncortex VTracer 0.6.4 -->

<svg
   version="1.1"
   width="1536"
   height="1024"
   id="svg8"
   xmlns="http://www.w3.org/2000/svg"
   xmlns:svg="http://www.w3.org/2000/svg">
  <defs
     id="defs8" />
  <path
     d="m 0,0 c 506.88,0 1013.76,0 1536,0 0,337.92 0,675.84 0,1024 -506.88,0 -1013.76,0 -1536,0 C 0,686.08 0,348.16 0,0 Z"
     fill="#fdfdfd"
     id="path1" />
  <path
     d="m 557.125,406.6875 c 1.2,-0.03 2.4,-0.06 3.63,-0.09 8.9,-0.06 15.98,1.01 22.56,7.34 6.12,8.01 7.3,19.33 9.2,29 0.82,4.13 1.77,8.18 2.9,12.23 1.88,6.76 3.36,13.6 4.83,20.46 0.31,1.38 0.61,2.76 0.91,4.15 1.63,7.52 3.24,15.05 4.82,22.58 0.16,0.76 0.32,1.52 0.49,2.3 0.77,3.69 1.55,7.37 2.31,11.06 0.28,1.33 0.56,2.66 0.84,3.99 0.25,1.17 0.49,2.34 0.74,3.54 0.52,2.69 0.52,2.69 1.65,4.75 0.2,-0.75 0.41,-1.5 0.62,-2.28 0.8,-2.93 1.6,-5.86 2.41,-8.79 0.5,-1.84 1,-3.67 1.51,-5.51 2.76,-10.05 5.67,-20.06 8.6,-30.07 1.54,-5.25 3.07,-10.52 4.59,-15.78 1.2,-4.15 2.4,-8.3 3.61,-12.45 0.61,-2.11 1.22,-4.21 1.83,-6.32 0.9,-3.12 1.81,-6.24 2.72,-9.36 0.26,-0.93 0.53,-1.87 0.81,-2.83 5.82,-19.96 5.82,-19.96 14.3,-25.61 6.55,-2.57 12.79,-2.4 19.74,-2.43 1.23,-0.04 2.45,-0.07 3.72,-0.1 7.79,-0.05 14.3,0.5 20.54,5.53 6.44,7.23 8.47,17.2 11,26.31 0.43,1.53 0.86,3.06 1.3,4.58 1.06,3.71 2.1,7.42 3.14,11.13 1.03,3.67 2.08,7.34 3.14,11 0.71,2.48 1.42,4.97 2.12,7.46 1.43,5.03 2.91,10.04 4.4,15.06 1.96,6.65 3.86,13.31 5.75,19.98 0.36,1.24 0.36,1.24 0.72,2.51 0.23,0.82 0.46,1.63 0.7,2.47 0.5,1.73 1.03,3.46 1.57,5.18 0.28,0.87 0.55,1.74 0.83,2.64 0.26,0.78 0.51,1.56 0.77,2.36 0.6,2.51 0.65,4.75 0.56,7.32 0.65,0 1.31,0 2,0 0.05,-1.05 0.05,-1.05 0.11,-2.13 0.54,-8.19 2.05,-15.9 3.95,-23.87 0.47,-2.04 0.94,-4.08 1.42,-6.12 0.33,-1.42 0.66,-2.85 0.99,-4.27 1.56,-6.71 3.04,-13.44 4.52,-20.17 1.33,-6.03 2.68,-12.05 4.03,-18.07 0.64,-2.88 1.28,-5.75 1.91,-8.62 0.88,-3.96 1.78,-7.92 2.69,-11.87 0.38,-1.74 0.38,-1.74 0.77,-3.52 1.89,-8.08 4.61,-17.26 12.04,-21.92 7.71,-3.11 16.02,-2.69 24.22,-2.73 1.43,-0.01 2.87,-0.03 4.3,-0.06 18.83,-0.39 18.83,-0.39 25.72,5.87 5.31,6.14 4.88,11.66 4.33,19.48 -2.21,12.9 -6.39,25.47 -10.11,37.99 -0.82,2.75 -1.62,5.51 -2.41,8.27 -8.84,30.73 -18.34,61.28 -27.91,91.79 -0.8,2.54 -1.59,5.08 -2.38,7.61 -1.11,3.58 -2.23,7.14 -3.36,10.71 -0.49,1.59 -0.49,1.59 -0.99,3.21 -4.92,15.49 -4.92,15.49 -10.22,19.8 -0.54,0.46 -1.09,0.92 -1.65,1.4 -5.74,3.56 -11.59,3.56 -18.12,3.59 -0.97,0.01 -1.95,0.02 -2.95,0.03 -2.05,0.02 -4.1,0.02 -6.14,0.03 -3.12,0.01 -6.24,0.06 -9.36,0.11 -2,0.01 -3.99,0.02 -5.99,0.02 -0.93,0.02 -1.85,0.04 -2.8,0.06 -7.92,-0.05 -12.53,-2.82 -18.3,-8.05 -7.15,-9.54 -9.03,-23.84 -11.91,-35.16 -1.29,-5.04 -2.78,-9.99 -4.35,-14.95 -2.27,-7.43 -4.24,-14.94 -6.25,-22.44 -0.55,-2.06 -1.1,-4.11 -1.66,-6.16 -0.85,-3.12 -1.69,-6.24 -2.52,-9.36 -0.26,-0.96 -0.53,-1.92 -0.8,-2.91 -1.22,-4.64 -2.16,-8.74 -1.82,-13.59 -0.66,0 -1.32,0 -2,0 -0.12,0.98 -0.24,1.96 -0.37,2.97 -0.61,4.27 -1.69,8.37 -2.82,12.53 -0.46,1.7 -0.91,3.39 -1.37,5.08 -0.23,0.89 -0.47,1.77 -0.72,2.68 -0.73,2.76 -1.44,5.52 -2.14,8.29 -2.71,10.64 -5.64,21.17 -8.9,31.65 -2.62,8.47 -5,16.99 -7.29,25.56 -2.54,9.32 -5.27,15.65 -13.41,21.36 -4.67,2.6 -9.21,2.46 -14.45,2.41 -0.99,0.01 -1.98,0.01 -3.01,0.02 -2.09,0 -4.18,-0.01 -6.27,-0.03 -3.18,-0.02 -6.36,0 -9.54,0.03 -2.04,0 -4.08,-0.01 -6.12,-0.02 -0.94,0.01 -1.88,0.02 -2.85,0.03 -6.97,-0.1 -12.44,-1.59 -17.7,-6.31 -6.65,-9.28 -9.31,-20.87 -12.8,-31.62 -0.22,-0.7 -0.45,-1.4 -0.68,-2.12 -6.56,-20.26 -12.62,-40.68 -18.73,-61.07 -2.16,-7.19 -4.33,-14.37 -6.51,-21.55 -0.29,-0.96 -0.58,-1.91 -0.88,-2.89 -1.47,-4.83 -2.96,-9.67 -4.48,-14.49 -0.98,-3.15 -1.94,-6.3 -2.9,-9.44 -0.4,-1.25 -0.8,-2.49 -1.21,-3.76 -4.76,-15.83 -4.45,-31.77 3.29,-46.59 6.68,-9.79 16.17,-9.94 26.98,-10.03 z"
     fill="#121212"
     id="path2" />
  <path
     d="m 993.05078,424.53516 c 18.40002,16.02 28.34002,36.29 30.95002,60.46 0.55,9.05 0.45,18.13 0.43,27.2 0.01,2.6 0.01,5.2 0.02,7.8 0.01,5.42 0.01,10.84 0,16.26 -0.02,6.25 0,12.49 0.02,18.74 0.03,6.05 0.03,12.1 0.03,18.15 0,2.56 0,5.12 0.01,7.68 0.02,3.57 0.01,7.13 -0.01,10.7 0.02,1.58 0.02,1.58 0.03,3.18 -0.06,6.2 -0.8,11.19 -4.53,16.29 -5.83,4.64 -10.53,5.18 -17.76,5.24 -1.3,0.02 -1.3,0.02 -2.62002,0.03 -1.83,0.01 -3.67,0.02 -5.5,0.03 -1.86,0.01 -3.73,0.03 -5.59,0.06 -2.7,0.04 -5.4,0.06 -8.1,0.07 -0.83,0.02 -1.65,0.04 -2.5,0.05 -5.77,-0.02 -10.1,-1.25 -14.93,-4.48 -3.73,-3.82 -4.22,-6.7 -4.25,-11.87 0.06,-1.71 0.14,-3.42 0.25,-5.13 -0.66,0 -1.32,0 -2,0 -0.22,0.57 -0.44,1.14 -0.66,1.73 -5.8,9.86 -21.11,16.3 -31.59,19.06 -3.24,0.8 -6.48,1.53 -9.75,2.21 -0.93,0.2 -1.85,0.39 -2.81,0.59 -22.05,2.86 -45.12,-0.2 -63.2,-13.86 -2.45,-2.15 -4.74,-4.37 -6.99,-6.73 -0.57,-0.55 -1.14,-1.1 -1.73,-1.66 -10.44,-10.85 -13.8,-26.79 -13.65,-41.27 -0.01,-1.11 -0.02,-2.21 -0.03,-3.34 0.05,-15.06 5.45,-29.85 15.15,-41.51 19.18,-18.84 44.13,-24.93 70.26,-25.53 15.21,0.24 32.49,2.95 46,10.31 0.3,-9.51 -0.35,-18.61 -7,-26 -12.76,-10.01 -28.52,-11 -44.06,-9.37 -10.93,1.56 -21.11,5.45 -31,10.25 -4.79,2.22 -7.69,3.06 -12.94,2.12 -10.84,-4.29 -16.48,-16.28 -21.13,-26.31 -1.97,-5.19 -2.9,-9.39 -0.87,-14.69 5.8,-11.17 21.73,-16.61 33,-20.31 37.82,-11.44 87.05,-12.74 119.05,13.85 z"
     fill="#121312"
     id="path3" />
  <path
     d="m 1099.9819,350.62939 c 2.25,0 4.49,-0.04 6.74,-0.08 8.32,-0.06 16.48,-0.1 22.88,5.97 3.15,3.62 4.53,6.04 4.51,10.75 0,1.32 0,1.32 0,2.67 0,0.95 -0.01,1.9 -0.01,2.88 -0.01,0.97 -0.01,1.95 -0.01,2.95 0,3.12 -0.02,6.24 -0.03,9.36 0,2.11 -0.01,4.22 -0.01,6.33 -0.01,5.18 -0.03,10.36 -0.05,15.54 1.2,-0.03 2.4,-0.05 3.63,-0.08 4.48,-0.09 8.96,-0.15 13.45,-0.19 1.93,-0.03 3.86,-0.06 5.8,-0.11 2.79,-0.06 5.58,-0.09 8.37,-0.11 1.28,-0.04 1.28,-0.04 2.59,-0.08 6.23,0 10.4,1.5 15.16,5.57 4.45,5.34 3.52,12.01 3.5,18.61 0,2.19 0.04,4.37 0.08,6.56 0.06,6.72 0.05,12.63 -3.92,18.36 -5.33,4.73 -10.46,4.88 -17.22,4.76 -0.9,0 -1.8,0 -2.73,-0.01 -2.86,-0.02 -5.72,-0.05 -8.59,-0.09 -1.94,-0.02 -3.89,-0.03 -5.84,-0.04 -4.76,-0.04 -9.52,-0.09 -14.28,-0.15 0.11,10.02 0.22,20.03 0.34,30.04 0.05,4.65 0.11,9.31 0.16,13.96 0.04,4.49 0.1,8.98 0.15,13.48 0.02,1.71 0.04,3.41 0.06,5.12 -0.36,16.43 -0.36,16.43 5.29,31.4 0,0.66 0,1.32 0,2 0.72,0.29 1.44,0.58 2.19,0.88 2.81,1.12 2.81,1.12 5,2.25 5.99,1.86 11.79,1.37 17.68,-0.63 6.88,-2.27 13.95,-2.97 20.63,0.13 4.81,4.57 7.23,9.48 8.75,15.87 0.16,0.69 0.33,1.39 0.5,2.1 1.92,8.59 3.55,18.88 -1.33,26.73 -10.44,12.22 -31.38,14.3 -46.42,15.67 -22.26,1.48 -44.06,-2.15 -61.69,-16.69 -12.31,-11.48 -17.67,-28.24 -18.42,-44.73 -0.17,-6.91 -0.12,-13.82 -0.09,-20.72 0.01,-2.23 0.01,-4.45 0.01,-6.67 0.01,-5.82 0.03,-11.63 0.05,-17.44 0.02,-5.94 0.03,-11.89 0.04,-17.84 0.02,-11.63 0.06,-23.27 0.1,-34.91 -1.08,0.04 -1.08,0.04 -2.19,0.08 -3.29,0.1 -6.58,0.17 -9.87,0.23 -1.14,0.05 -2.27,0.09 -3.44,0.13 -5.93,0.09 -10.59,0.13 -15.2,-3.9 -5.38,-6.37 -4.83,-14.1 -4.8,-21.93 0,-2.11 -0.04,-4.21 -0.09,-6.32 -0.12,-12.66 -0.12,-12.66 3.94,-17.08 6.61,-4.86 14.34,-4.6 22.21,-4.4 1.51,0.02 1.51,0.02 3.06,0.04 2.46,0.04 4.92,0.09 7.38,0.15 -0.02,-0.81 -0.02,-0.81 -0.05,-1.64 -0.1,-7.34 0.43,-14.61 1.11,-21.92 0.19,-2.07 0.35,-4.14 0.52,-6.21 0.75,-8.56 1.63,-16.08 8.36,-22.1 7.01,-4.87 13.79,-4.5 22.04,-4.5 z"
     fill="#121212"
     id="path4" />
  <path
     d="m 485.71484,350.46875 c 1.22,-0.01 1.22,-0.01 2.47,-0.01 1.71,0 3.43,0 5.14,0.02 2.6,0.02 5.2,0 7.81,-0.03 1.67,0.01 3.34,0.01 5.02,0.02 0.77,-0.01 1.53,-0.02 2.32,-0.02 6.48,0.11 11.8,1.88 16.49,6.48 2.82,5.64 1.64,12.07 -0.11,17.89 -1.57,4.31 -3.37,8.53 -5.17,12.74 -0.65,1.58 -1.3,3.15 -1.95,4.72 -1.3,3.15 -2.61,6.29 -3.93,9.43 -1.92,4.56 -3.8,9.15 -5.66,13.74 -1.28,3.17 -2.57,6.33 -3.87,9.5 -2.67,6.55 -5.32,13.11 -7.96,19.67 -9.3,23.1 -18.67,46.17 -28.2,69.17 -6.76,16.32 -13.44,32.66 -20.09,49.02 -1.55,3.8 -3.1,7.6 -4.65,11.39 -1.68,4.09 -3.33,8.19 -4.98,12.3 -0.87,2.15 -1.74,4.3 -2.61,6.45 -0.39,0.98 -0.78,1.97 -1.18,2.99 -2.96,7.24 -6.33,14.37 -13.25,18.53 -7.04,2.68 -14.95,2.12 -22.37,2.05 -2.68,-0.02 -5.35,0 -8.03,0.03 -1.72,0 -3.44,-0.01 -5.15,-0.02 -0.8,0.01 -1.59,0.02 -2.41,0.03 -5.25,-0.09 -8.21,-1.13 -12.39,-4.56 -3.36,-3.8 -3.38,-7.31 -3.3,-12.16 0.55,-5.21 2.59,-9.78 4.61,-14.59 0.48,-1.18 0.96,-2.36 1.45,-3.58 1.4,-3.44 2.83,-6.88 4.26,-10.32 1.41,-3.39 2.8,-6.79 4.2,-10.19 4.83,-11.77 9.7,-23.53 14.58,-35.28 2.94,-7.09 5.89,-14.19 8.83,-21.28 0.7,-1.69 1.4,-3.38 2.1,-5.06 10.1,-24.35 20.1,-48.74 30.03,-73.16 2.74,-6.73 5.49,-13.45 8.25,-20.18 0.36,-0.86 0.71,-1.72 1.08,-2.6 1.75,-4.27 3.5,-8.53 5.25,-12.79 0.65,-1.59 1.3,-3.17 1.96,-4.76 0.31,-0.77 0.63,-1.53 0.95,-2.32 1.51,-3.69 3.01,-7.38 4.46,-11.09 0.26,-0.68 0.53,-1.37 0.81,-2.07 0.72,-1.85 1.43,-3.69 2.15,-5.54 4.43,-10.1 12.25,-14.67 23.04,-14.56 z"
     fill="#121212"
     id="path5" />
  <path
     d="m 957,535 c 1.83,1.83 1.34,4.47 1.44,6.94 -0.08,8.04 -2.61,13.2 -8.23,18.87 -7.12,5.89 -16.1,8.61 -25.21,9.19 -0.75,0.06 -1.49,0.13 -2.26,0.19 -8.63,0.43 -17.93,-1.57 -24.86,-6.94 -3.99,-3.97 -5.68,-8.12 -6.04,-13.7 0.21,-5.57 1.63,-9.52 5.21,-13.79 15.78,-14.26 42.57,-8.28 59.95,-0.76 z"
     fill="#fbfbfb"
     id="path7" />
  <path
     d="m 469,356 c 0.99,0.33 1.98,0.66 3,1 -0.95,1.17 -1.91,2.34 -2.88,3.5 -0.53,0.65 -1.06,1.3 -1.61,1.97 -0.5,0.5 -1,1.01 -1.51,1.53 -0.66,0 -1.32,0 -2,0 1.19,-3.38 2.28,-5.65 5,-8 z"
     fill="#1a1a1b"
     id="path8" />
  <path
     style="fill:#000000"
     id="rect9"
     width="71.68"
     height="70.400002"
     x="281.60001"
     y="546.56"
     d="m 304.60001,546.56 h 25.68 a 23,23 45 0 1 23,23 v 24.4 a 23,23 135 0 1 -23,23 h -25.68 a 23,23 45 0 1 -23,-23 v -24.4 a 23,23 135 0 1 23,-23 z"
     transform="matrix(-0.97616313,0,-0.31858257,0.86870547,817.11077,80.221904)" />
</svg>
